<svg xmlns="http://www.w3.org/2000/svg" viewBox="0 0 1003.28 989.87"><defs><style>.cls-1{fill:#f7f7f7;}.cls-2{fill:#b3dc82;}.cls-3{fill:#354421;stroke:#354421;stroke-linejoin:round;stroke-width:4.18px;}</style></defs><title>Varlık 5</title><g id="katman_2" data-name="katman 2"><g id="Layer_1" data-name="Layer 1"><path class="cls-1" d="M210.18,178C130.61,337,194.64,530.19,353.2,609.56s351.6,14.87,431.17-144.08S799.91,113.34,641.35,34,289.76,19.09,210.18,178Z"/><path class="cls-2" d="M314.93,88.52s-105.9,91-117.67,231c0,0-2.07,82.18,30.75,114.28,0,0,29.35,25.65,51.36-16.7,0,0,14.67-43.23,27.07,82.76,0,0,2,19.91,6,20.4,3.08.39,6.63-4.52,9.92-9.91,3.39-5.55,6.68-18.74,6.85-19.53,7.22-32.81,14.25-86.74,24.06-103.11,0,0,27.15,43.55,105-23.63,0,0,4.83,4.95-4.86,16.66,0,0,26.93-12.92,41.85-49.42,0,0-84.51,59.25-144.67,17.05,0,0-9.29-9.26-14.25-2-5.12,7.5-20.86,49.6-26.58,60.66,0,0-18-107.56-33.9-109.27-9.37-1-16.45,89.9-22.85,112.86,0,0-32.31-49.67-12.93-147.07C249.35,216.48,283.21,151.49,314.93,88.52Z"/><path class="cls-2" d="M720.93,523.26s86.23-109.81,70.63-249.42c0,0-13.91-81-52.33-106.14,0,0-33.77-19.47-47.14,26.34,0,0-6,45.26-42.61-75.93,0,0-5.86-19.14-9.81-18.86-3.1.22-5.62,5.72-7.81,11.64-2.25,6.11-2.91,19.68-2.93,20.49-.72,33.59,2.85,87.85-3.6,105.82,0,0-35.09-37.46-98.38,43.54,0,0-5.7-3.92,1.53-17.29,0,0-23.91,17.9-31.47,56.6,0,0,71.41-74.52,138.61-44.79,0,0,10.91,7.28,14.37-.8,3.57-8.35,10.84-52.71,14.3-64.66,0,0,38.54,102,54.46,100.62,9.39-.83-1.3-91.38.52-115.15,0,0,41.33,42.46,41.22,141.76C760.44,385,739.84,455.33,720.93,523.26Z"/><path class="cls-3" d="M209.09,819.78c0-34.22-13.18-54.13-46.28-54.13-31.13,0-41.23,16-49.37,30.57-3.65-19.35-17.11-30.57-41.79-30.57-27.49,0-39.27,15.71-46.28,32.26.84-4.21,2-9.82,2-13.46v-5.89c0-7.29-5-10.94-12.06-10.94-7.85,0-13.18,3.65-13.18,10.94v136.6c0,7.57,5,11.22,12.9,11.22,7.29,0,12.34-3.65,12.34-11.22V833.8c0-9.26,2.52-19.35,7.57-26.93,6.73-10.1,15.71-18.79,30.57-18.79,19.91,0,26.93,13.46,26.93,37.3v89.76c0,7.57,4.77,11.22,12.62,11.22,7.29,0,12.62-3.65,12.62-11.22V832.4c0-8.41,3.37-19.35,7.57-25.24,6.73-10.1,16.55-19.07,31.41-19.07,20.19,0,26.93,13.46,26.93,37.3v89.76c0,7.57,4.77,11.22,12.62,11.22,7.29,0,12.9-3.65,12.9-11.22Z"/><path class="cls-3" d="M364.48,851.75c8.7,0,14-5.33,14-15.43v-2.24c-2.8-36.74-25.8-68.72-66.76-68.72-45.72,0-71,33.94-71,82.46s26.65,81.06,72.65,81.06c36.46,0,52.73-18.51,61.71-37a8.65,8.65,0,0,0,1.4-5c0-5-3.93-8.41-8.7-9.82a21.84,21.84,0,0,0-5.89-1.12c-3.93,0-7.57,2-10.1,7-6.73,14.87-18,25-38.15,25-30.29,0-47.4-21.6-48-56.1Zm-97.89-20.48c3.65-27.49,18.23-45.44,45.16-45.44,25.8,0,37.87,20.47,41.23,40.39v1.4c0,2.52-1.12,3.65-4.21,3.65Z"/><path class="cls-3" d="M845.24,825.39c-30,.56-44.6,2.24-60,6.45-26.65,7.29-42.35,24.12-42.35,50.49,0,28.89,18.79,46.28,49.65,46.28,27.77,0,42.63-10.94,53.29-23a79.78,79.78,0,0,0,1.68,14c1.12,5,6.17,6.73,11.78,6.73h2.53c7-.56,11.22-4.49,11.22-9a9.94,9.94,0,0,0-.56-2.8c-1.68-5.33-3.09-14.87-3.09-24.68V813.33c0-33.1-18.51-48-56.1-48-22.72,0-35.34,4.77-45.16,12.34-6.45,5-13.74,13.18-16.55,21.88a14.05,14.05,0,0,0-.56,3.37c0,5,3.93,9,9.26,10.66a16.45,16.45,0,0,0,6.45,1.12c4.77,0,9-2,10.94-7.29,4.77-12.9,14.87-20.76,35.34-20.76,22.16,0,32.26,8.13,32.26,26.65Zm0,39c0,10.66-2,16-7.29,22.72A52.83,52.83,0,0,1,796.71,907c-16.83,0-28-9.82-28-24.4,0-13.46,5.89-22.16,17.11-27.77s26.65-8.42,59.46-9.26Z"/><path class="cls-3" d="M927.7,769.29H906.1c-7,0-10.1,4.77-10.1,11.22s3.09,10.94,9.82,10.94H927.7v96.21c0,29.45,16.83,41,39.83,41,12.06,0,19.63-2.24,27.77-6.17a11,11,0,0,0,5.89-10.1,16,16,0,0,0-1.12-6.17c-1.69-4.21-5-7.29-9.26-7.29a11.44,11.44,0,0,0-5,1.4A30.33,30.33,0,0,1,969.21,905c-10.38,0-16.27-5.89-16.27-19.63v-94h35.9c6.73,0,10.37-4.49,10.37-10.94,0-6.73-3.36-11.22-10.37-11.22h-35.9V735.35c0-7.29-5.33-11.22-12.62-11.22-7.85,0-12.62,3.93-12.62,11.22Z"/><path class="cls-3" d="M280.16,813.53"/><path class="cls-3" d="M413,915.14c0,7.57,5.33,11.22,13.18,11.22,7,0,12.62-3.65,12.62-11.22V837.73a50.33,50.33,0,0,1,11.78-31.13c7-9,16.27-15.15,28.33-15.43a56.54,56.54,0,0,1,13.46,1.68,7.75,7.75,0,0,0,2.52.28c5.89,0,9.82-5,10.94-10.94a31.14,31.14,0,0,0,.56-4.77c0-5.33-2.52-9.26-9-10.1a49.13,49.13,0,0,0-11.22-1.4,47.46,47.46,0,0,0-6.17.28c-24.12.84-38.43,18.23-42.91,31.7.56-4.49,1.68-9.26,1.68-13.18v-6.17c0-7.29-5.61-10.94-12.62-10.94-7.85,0-13.18,3.65-13.18,10.94Z"/><path class="cls-3" d="M530.25,915.14c0,7.57,4.77,11.22,12.62,11.22,7.57,0,12.9-3.65,12.9-11.22V778.54c0-7.29-5.33-10.94-12.9-10.94-7.85,0-12.62,3.65-12.62,10.94Zm12.9-210.93A18.93,18.93,0,1,0,561.94,723,18.68,18.68,0,0,0,543.15,704.22Z"/><path class="cls-3" d="M662.08,868.3c-3.09,8.14-7,18.79-9.26,27.49-2.52-8.7-5-19.07-8.42-28l-35.34-93.12c-2-5-6.17-7-10.66-7a21.35,21.35,0,0,0-5.89.84c-5,1.68-9.26,5.89-9.26,10.94a12.7,12.7,0,0,0,.84,4.49l56.66,137.44-7.85,19.63c-5,12.9-10.94,23.56-23,23.56-5,0-10.1-2-14-3.65a13,13,0,0,0-5.33-1.12c-4.77,0-8.41,3.09-10.38,7.85a17.81,17.81,0,0,0-1.4,6.45c0,4.21,2.24,8.13,7.85,10.1a54.9,54.9,0,0,0,20.2,3.64c27.49,0,39-16,48.8-40.1l66.2-164.09a15.56,15.56,0,0,0,.84-4.77c0-5-3.93-9-9.26-10.38a30.85,30.85,0,0,0-5-.56c-4.77,0-9,2-10.94,7.29Z"/><path class="cls-3" d="M571.43,723.83"/><path class="cls-2" d="M515.57,736.45a28.65,28.65,0,1,1,36.23,18.27A28.69,28.69,0,0,1,515.57,736.45Z"/></g></g></svg>