<svg xmlns="http://www.w3.org/2000/svg" viewBox="0 0 1003.28 291.15"><defs><style>.cls-1{fill:#354421;stroke:#354421;stroke-linejoin:round;stroke-width:4.18px;}.cls-2{fill:#b3dc82;}</style></defs><title>Varlık 8</title><g id="katman_2" data-name="katman 2"><g id="Layer_1" data-name="Layer 1"><path class="cls-1" d="M209.09,121.05c0-34.22-13.18-54.13-46.28-54.13-31.13,0-41.23,16-49.37,30.57C109.8,78.14,96.33,66.92,71.65,66.92c-27.49,0-39.27,15.71-46.28,32.26.84-4.21,2-9.82,2-13.46V79.82c0-7.29-5-10.94-12.06-10.94-7.85,0-13.18,3.65-13.18,10.94v136.6c0,7.57,5,11.22,12.9,11.22,7.29,0,12.34-3.65,12.34-11.22V135.08c0-9.26,2.52-19.35,7.57-26.93,6.73-10.1,15.71-18.79,30.57-18.79,19.91,0,26.93,13.46,26.93,37.3v89.76c0,7.57,4.77,11.22,12.62,11.22,7.29,0,12.62-3.65,12.62-11.22V133.67c0-8.41,3.37-19.35,7.57-25.24,6.73-10.1,16.55-19.07,31.41-19.07,20.19,0,26.93,13.46,26.93,37.3v89.76c0,7.57,4.77,11.22,12.62,11.22,7.29,0,12.9-3.65,12.9-11.22Z"/><path class="cls-1" d="M364.48,153c8.7,0,14-5.33,14-15.43v-2.24c-2.8-36.74-25.8-68.72-66.76-68.72-45.72,0-71,33.94-71,82.46s26.65,81.06,72.65,81.06c36.46,0,52.73-18.51,61.71-37a8.65,8.65,0,0,0,1.4-5c0-5-3.93-8.41-8.7-9.82a21.84,21.84,0,0,0-5.89-1.12c-3.93,0-7.57,2-10.1,7-6.73,14.87-18,25-38.15,25-30.29,0-47.4-21.6-48-56.1Zm-97.89-20.48c3.65-27.49,18.23-45.44,45.16-45.44,25.8,0,37.87,20.47,41.23,40.39v1.4c0,2.52-1.12,3.65-4.21,3.65Z"/><path class="cls-1" d="M845.24,126.66c-30,.56-44.6,2.24-60,6.45-26.65,7.29-42.35,24.12-42.35,50.49,0,28.89,18.79,46.28,49.65,46.28,27.77,0,42.63-10.94,53.29-23a79.78,79.78,0,0,0,1.68,14c1.12,5,6.17,6.73,11.78,6.73h2.53c7-.56,11.22-4.49,11.22-9a9.94,9.94,0,0,0-.56-2.8c-1.68-5.33-3.09-14.87-3.09-24.68V114.6c0-33.1-18.51-48-56.1-48-22.72,0-35.34,4.77-45.16,12.34-6.45,5-13.74,13.18-16.55,21.88a14.05,14.05,0,0,0-.56,3.37c0,5,3.93,9,9.26,10.66A16.45,16.45,0,0,0,766.7,116c4.77,0,9-2,10.94-7.29C782.41,95.81,792.51,88,813,88c22.16,0,32.26,8.13,32.26,26.65Zm0,39c0,10.66-2,16-7.29,22.72a52.83,52.83,0,0,1-41.23,19.91c-16.83,0-28-9.82-28-24.4,0-13.46,5.89-22.16,17.11-27.77s26.65-8.42,59.46-9.26Z"/><path class="cls-1" d="M927.7,70.56H906.1c-7,0-10.1,4.77-10.1,11.22s3.09,10.94,9.82,10.94H927.7v96.21c0,29.45,16.83,41,39.83,41,12.06,0,19.63-2.24,27.77-6.17a11,11,0,0,0,5.89-10.1,16,16,0,0,0-1.12-6.17c-1.69-4.21-5-7.29-9.26-7.29a11.44,11.44,0,0,0-5,1.4,30.33,30.33,0,0,1-16.55,4.77c-10.38,0-16.27-5.89-16.27-19.63v-94h35.9c6.73,0,10.37-4.49,10.37-10.94,0-6.73-3.36-11.22-10.37-11.22h-35.9V36.63c0-7.29-5.33-11.22-12.62-11.22-7.85,0-12.62,3.93-12.62,11.22Z"/><path class="cls-1" d="M280.16,114.81"/><path class="cls-1" d="M413,216.42c0,7.57,5.33,11.22,13.18,11.22,7,0,12.62-3.65,12.62-11.22V139a50.33,50.33,0,0,1,11.78-31.13c7-9,16.27-15.15,28.33-15.43a56.54,56.54,0,0,1,13.46,1.68,7.75,7.75,0,0,0,2.52.28c5.89,0,9.82-5,10.94-10.94a31.14,31.14,0,0,0,.56-4.77c0-5.33-2.52-9.26-9-10.1a49.13,49.13,0,0,0-11.22-1.4,47.46,47.46,0,0,0-6.17.28c-24.12.84-38.43,18.23-42.91,31.7.56-4.49,1.68-9.26,1.68-13.18V79.82c0-7.29-5.61-10.94-12.62-10.94-7.85,0-13.18,3.65-13.18,10.94Z"/><path class="cls-1" d="M530.25,216.42c0,7.57,4.77,11.22,12.62,11.22,7.57,0,12.9-3.65,12.9-11.22V79.82c0-7.29-5.33-10.94-12.9-10.94-7.85,0-12.62,3.65-12.62,10.94ZM543.15,5.49a18.68,18.68,0,0,0-19.07,18.79,18.93,18.93,0,1,0,37.87,0A18.62,18.62,0,0,0,543.15,5.49Z"/><path class="cls-1" d="M662.08,169.58c-3.09,8.14-7,18.79-9.26,27.49-2.52-8.7-5-19.07-8.42-28L609.07,75.89c-2-5-6.17-7-10.66-7a21.35,21.35,0,0,0-5.89.84c-5,1.68-9.26,5.89-9.26,10.94a12.7,12.7,0,0,0,.84,4.49l56.66,137.44-7.85,19.63c-5,12.9-10.94,23.56-23,23.56-5,0-10.1-2-14-3.65a13,13,0,0,0-5.33-1.12c-4.77,0-8.41,3.09-10.38,7.85a17.81,17.81,0,0,0-1.4,6.45c0,4.21,2.24,8.13,7.85,10.1a54.9,54.9,0,0,0,20.2,3.64c27.49,0,39-16,48.8-40.1l66.2-164.09a15.56,15.56,0,0,0,.84-4.77c0-5-3.93-9-9.26-10.38a30.85,30.85,0,0,0-5-.56c-4.77,0-9,2-10.94,7.29Z"/><path class="cls-1" d="M571.43,25.11"/><path class="cls-2" d="M515.57,37.72A28.65,28.65,0,1,1,551.79,56,28.69,28.69,0,0,1,515.57,37.72Z"/></g></g></svg>