<svg xmlns="http://www.w3.org/2000/svg" viewBox="0 0 923.83 255.8"><defs><style>.cls-1{fill:#b3dc82;}.cls-2{fill:#f7f7f7;}.cls-3{fill:#354421;stroke:#354421;stroke-linejoin:round;stroke-width:4.18px;}</style></defs><title>Varlık 10</title><g id="katman_2" data-name="katman 2"><g id="Layer_1" data-name="Layer 1"><path class="cls-1" d="M13.59,70.77C-18,134,7.41,210.75,70.44,242.3S210.2,248.21,241.83,185,248,45.05,185,13.5,45.22,7.59,13.59,70.77Z"/><path class="cls-2" d="M55.23,35.19S13.14,71.36,8.46,127c0,0-.82,32.66,12.22,45.42,0,0,11.67,10.2,20.41-6.64,0,0,5.83-17.18,10.76,32.9,0,0,.81,7.91,2.37,8.11,1.23.15,2.63-1.8,3.94-3.94s2.65-7.45,2.72-7.76c2.87-13,5.66-34.48,9.56-41,0,0,10.79,17.31,41.72-9.39,0,0,1.92,2-1.93,6.62,0,0,10.71-5.13,16.63-19.64,0,0-33.59,23.55-57.51,6.78,0,0-3.69-3.68-5.66-.79s-8.29,19.72-10.56,24.11c0,0-7.16-42.76-13.48-43.44-3.72-.4-6.54,35.73-9.08,44.86,0,0-12.84-19.75-5.14-58.46C29.16,86,42.62,60.22,55.23,35.19Z"/><path class="cls-2" d="M216.62,208s34.28-43.65,28.07-99.15c0,0-5.53-32.2-20.8-42.19,0,0-13.42-7.74-18.74,10.47,0,0-2.39,18-16.94-30.18,0,0-2.33-7.61-3.9-7.5-1.23.09-2.23,2.27-3.1,4.63S180,51.9,180,52.23c-.29,13.35,1.13,34.92-1.43,42.06,0,0-13.95-14.89-39.11,17.31,0,0-2.26-1.56.61-6.87,0,0-9.51,7.11-12.51,22.5,0,0,28.39-29.62,55.1-17.81,0,0,4.34,2.89,5.71-.32s4.31-21,5.69-25.7c0,0,15.32,40.55,21.65,40,3.73-.33-.52-36.32.21-45.77,0,0,16.43,16.88,16.39,56.35C232.32,153,224.13,181,216.62,208Z"/><path class="cls-3" d="M443.85,120.08c0-20.65-8-32.66-27.92-32.66-18.78,0-24.88,9.65-29.78,18.45-2.2-11.68-10.32-18.45-25.21-18.45-16.58,0-23.69,9.48-27.92,19.46a49.54,49.54,0,0,0,1.18-8.12V95.2c0-4.4-3-6.6-7.28-6.6-4.74,0-8,2.2-8,6.6v82.41c0,4.57,3,6.77,7.78,6.77,4.4,0,7.45-2.2,7.45-6.77V128.54a30.2,30.2,0,0,1,4.57-16.25c4.06-6.09,9.48-11.34,18.45-11.34,12,0,16.25,8.12,16.25,22.51v54.15c0,4.57,2.88,6.77,7.61,6.77,4.4,0,7.62-2.2,7.62-6.77V127.69c0-5.08,2-11.68,4.57-15.23,4.06-6.09,10-11.51,19-11.51,12.18,0,16.25,8.12,16.25,22.51v54.15c0,4.57,2.88,6.77,7.62,6.77,4.4,0,7.78-2.2,7.78-6.77Z"/><path class="cls-3" d="M537.6,139.37c5.25,0,8.46-3.22,8.46-9.31v-1.35c-1.69-22.17-15.57-41.46-40.28-41.46C478.2,87.25,463,107.73,463,137S479,185.91,506.8,185.91c22,0,31.81-11.17,37.23-22.34a5.22,5.22,0,0,0,.85-3c0-3-2.37-5.08-5.25-5.92a13.18,13.18,0,0,0-3.55-.68c-2.37,0-4.57,1.18-6.09,4.23-4.06,9-10.83,15.06-23,15.06-18.28,0-28.6-13-28.94-33.84ZM478.54,127c2.2-16.58,11-27.41,27.24-27.41,15.57,0,22.85,12.35,24.88,24.37v.85c0,1.52-.68,2.2-2.54,2.2Z"/><path class="cls-3" d="M827.65,123.46c-18.11.34-26.91,1.35-36.21,3.89-16.08,4.4-25.55,14.55-25.55,30.46,0,17.43,11.34,27.92,30,27.92,16.75,0,25.72-6.6,32.15-13.88a48.13,48.13,0,0,0,1,8.46c.68,3,3.72,4.06,7.11,4.06h1.52c4.23-.34,6.77-2.71,6.77-5.41a6,6,0,0,0-.34-1.69,55.23,55.23,0,0,1-1.86-14.89v-46.2c0-20-11.17-28.94-33.85-28.94-13.71,0-21.32,2.88-27.24,7.45-3.89,3-8.29,8-10,13.2a8.48,8.48,0,0,0-.34,2c0,3,2.37,5.41,5.58,6.43a9.92,9.92,0,0,0,3.89.68,6.47,6.47,0,0,0,6.6-4.4c2.88-7.78,9-12.52,21.32-12.52,13.37,0,19.46,4.91,19.46,16.08Zm0,23.52c0,6.43-1.18,9.65-4.4,13.71a31.87,31.87,0,0,1-24.88,12c-10.15,0-16.92-5.92-16.92-14.72,0-8.12,3.55-13.37,10.32-16.75s16.08-5.08,35.88-5.58Z"/><path class="cls-3" d="M877.4,89.62h-13c-4.23,0-6.09,2.88-6.09,6.77s1.86,6.6,5.92,6.6h13.2v58c0,17.77,10.15,24.71,24,24.71A35.07,35.07,0,0,0,918.19,182a6.64,6.64,0,0,0,3.55-6.09,9.66,9.66,0,0,0-.68-3.72c-1-2.54-3-4.4-5.59-4.4a6.9,6.9,0,0,0-3,.85,18.3,18.3,0,0,1-10,2.88c-6.26,0-9.81-3.55-9.81-11.85V103h21.66c4.06,0,6.26-2.71,6.26-6.6,0-4.06-2-6.77-6.26-6.77H892.63V69.14c0-4.4-3.22-6.77-7.62-6.77-4.74,0-7.62,2.37-7.62,6.77Z"/><path class="cls-3" d="M486.73,116.31"/><path class="cls-3" d="M566.88,177.62c0,4.57,3.22,6.77,8,6.77,4.23,0,7.62-2.2,7.62-6.77V130.91a30.36,30.36,0,0,1,7.11-18.78c4.23-5.42,9.81-9.14,17.09-9.31a34.11,34.11,0,0,1,8.12,1,4.68,4.68,0,0,0,1.52.17c3.55,0,5.92-3,6.6-6.6a18.79,18.79,0,0,0,.34-2.88c0-3.22-1.52-5.58-5.41-6.09a29.64,29.64,0,0,0-6.77-.85,31.73,31.73,0,0,0-29.61,19.29,73.13,73.13,0,0,0,1-8V95.2c0-4.4-3.38-6.6-7.62-6.6-4.74,0-8,2.2-8,6.6Z"/><path class="cls-3" d="M637.61,177.62c0,4.57,2.88,6.77,7.62,6.77,4.57,0,7.78-2.2,7.78-6.77V95.2c0-4.4-3.22-6.6-7.78-6.6-4.74,0-7.62,2.2-7.62,6.6ZM645.4,50.36A11.42,11.42,0,1,0,656.73,61.7,11.27,11.27,0,0,0,645.4,50.36Z"/><path class="cls-3" d="M717.15,149.36a173.49,173.49,0,0,0-5.58,16.58c-1.52-5.25-3-11.51-5.08-16.92L685.16,92.83a6.47,6.47,0,0,0-6.43-4.23,12.88,12.88,0,0,0-3.55.51c-3,1-5.58,3.55-5.58,6.6a7.66,7.66,0,0,0,.51,2.71l34.18,82.92-4.74,11.85c-3,7.78-6.6,14.21-13.88,14.21a22.3,22.3,0,0,1-8.46-2.2,7.84,7.84,0,0,0-3.22-.68c-2.88,0-5.08,1.86-6.26,4.74a10.74,10.74,0,0,0-.85,3.89c0,2.54,1.35,4.91,4.74,6.09a33.12,33.12,0,0,0,12.18,2.2c16.58,0,23.52-9.64,29.45-24.2l39.94-99a9.39,9.39,0,0,0,.51-2.88c0-3-2.37-5.42-5.58-6.26a18.61,18.61,0,0,0-3-.34,6.47,6.47,0,0,0-6.6,4.4Z"/><path class="cls-3" d="M662.45,62.19"/><path class="cls-1" d="M628.75,69.81a17.29,17.29,0,1,1,21.86,11A17.31,17.31,0,0,1,628.75,69.81Z"/></g></g></svg>