<svg xmlns="http://www.w3.org/2000/svg" viewBox="0 0 999.76 1001.24"><defs><style>.cls-1{fill:#b3dc82;}.cls-2{fill:#f7f7f7;}.cls-3{fill:#354421;stroke:#354421;stroke-linejoin:round;stroke-width:4.18px;}</style></defs><title>Varlık 6</title><g id="katman_2" data-name="katman 2"><g id="Layer_1" data-name="Layer 1"><path class="cls-1" d="M53.2,277C-70.6,524.3,29,824.89,275.71,948.39s547,23.14,670.84-224.16S970.74,176.34,724,52.84,177,29.7,53.2,277Z"/><path class="cls-2" d="M216.18,137.72S51.42,279.3,33.1,497.1c0,0-3.22,127.85,47.84,177.8,0,0,45.67,39.91,79.9-26,0,0,22.82-67.26,42.12,128.76,0,0,3.16,31,9.27,31.74,4.8.6,10.31-7,15.44-15.42,5.28-8.64,10.39-29.16,10.66-30.39,11.23-51.05,22.16-134.95,37.43-160.42,0,0,42.24,67.76,163.3-36.77,0,0,7.51,7.7-7.56,25.93,0,0,41.9-20.1,65.11-76.89,0,0-131.48,92.19-225.08,26.53,0,0-14.45-14.4-22.17-3.11-8,11.67-32.46,77.17-41.35,94.38,0,0-28-167.35-52.75-170-14.58-1.57-25.6,139.87-35.55,175.59,0,0-50.26-77.29-20.13-228.82C114.14,336.81,166.82,235.69,216.18,137.72Z"/><path class="cls-2" d="M847.86,814.12S982,643.27,957.74,426.05c0,0-21.65-126-81.42-165.14,0,0-52.55-30.29-73.34,41,0,0-9.34,70.41-66.3-118.14,0,0-9.11-29.77-15.26-29.34-4.82.34-8.75,8.9-12.15,18.12-3.51,9.5-4.53,30.62-4.56,31.88-1.12,52.26,4.44,136.69-5.6,164.64,0,0-54.59-58.28-153.07,67.75,0,0-8.86-6.1,2.39-26.9,0,0-37.21,27.85-49,88.06,0,0,111.1-115.94,215.66-69.69,0,0,17,11.32,22.35-1.25,5.56-13,16.87-82,22.26-100.61,0,0,60,158.74,84.73,156.55,14.61-1.29-2-142.17.81-179.15,0,0,64.3,66.07,64.13,220.56C909.33,599,877.27,708.44,847.86,814.12Z"/><path class="cls-3" d="M277.51,830.91"/><path class="cls-3" d="M568.77,741.21"/></g></g></svg>